<svg height="173.600076" viewBox="0 0 73.318077 21.503662" width="576.036615" xmlns="http://www.w3.org/2000/svg"><g transform="translate(-114.83046 -78.080195)"><path d="m115.18479 99.229526h72.96375v-20.795h-72.96375z" fill="#db1e26"/><g fill="#fff"><path d="m0 0h.27c.386-.422.792-.836 1.176-1.275v1.275l.109-.008.109.008v-1.869l-.231.003c-.316.352-.61.687-.918 1.011l-.297.31v-1.318l-.109.008-.109-.008" transform="matrix(1.25 0 0 -1.25 133.37979 82.947026)"/><path d="m0 0c0-.354.161-.73.569-.73.42 0 .608.42.608.872 0 .351-.164.754-.572.754-.379 0-.605-.286-.605-.896m.556-.893c-.602 0-1.008.354-1.008.972 0 .542.395.981 1.073.981.776 0 1.005-.548 1.008-.97.002-.531-.406-.983-1.073-.983" transform="matrix(1.25 0 0 -1.25 136.69979 84.210776)"/><path d="m0 0c.286-.026.428.109.428.391l-.014.135c-.043.227-.248.204-.414.204zm-.408.878h.58c.128 0 .327.005.441-.055.155-.082.237-.205.237-.39 0-.266-.172-.436-.425-.49.15-.262.319-.512.482-.765l.106-.169-.247.013-.245-.013-.325.572c-.041.073-.117.199-.177.302h-.019v-.874l-.204.013-.204-.013" transform="matrix(1.25 0 0 -1.25 139.88979 84.044526)"/><path d="m0 0h.136c.15 0 .322.131.322.357 0 .299-.167.403-.458.381zm0 .896c.117 0 .221-.011.313.068.085.071.117.177.117.283 0 .196-.111.303-.291.303l-.139-.011zm-.409.801h.703c.275 0 .542-.093.542-.411 0-.256-.215-.404-.446-.436v-.025c.201-.019.49-.112.49-.449 0-.376-.338-.534-.659-.534h-.63" transform="matrix(1.25 0 0 -1.25 142.25729 85.068276)"/><path d="m0 0-.014-.117.014-.117c-.166.022-.352.043-.629.038v-.586h.283c.123 0 .234.011.335.025l-.013-.117.013-.117c-.101.013-.212.024-.335.024h-.283v-.692c.277.003.463.016.629.038l-.014-.117.014-.117h-1.038v1.855" transform="matrix(1.25 0 0 -1.25 145.39229 82.947026)"/><path d="m0 0c.286-.026.428.109.428.391l-.014.135c-.044.227-.248.204-.414.204zm-.409.878h.581c.128 0 .326.005.441-.055.155-.082.237-.205.237-.39 0-.266-.172-.436-.425-.49.15-.262.319-.512.482-.765l.106-.169-.248.013-.245-.013-.324.572c-.041.073-.117.199-.177.302h-.019v-.874l-.204.013-.205-.013" transform="matrix(1.25 0 0 -1.25 146.56979 84.044526)"/><path d="m0 0-.204.014-.204-.014v1.675c-.194 0-.365-.019-.507-.038l.013.117-.013.115h1.403l-.014-.115.014-.117c-.161.019-.322.038-.488.038" transform="matrix(1.25 0 0 -1.25 149.36359 85.283276)"/><path d="m0 0h.231c.376 0 .662.188.662.825 0 .512-.242.714-.626.714h-.267zm.523 1.697c.583-.022.823-.428.823-.874 0-.616-.434-.981-.992-.981h-.763v1.855" transform="matrix(1.25 0 0 -1.25 120.47609 88.682026)"/><path d="m0 0-.014-.117.014-.117c-.166.021-.351.043-.629.038v-.586h.283c.123 0 .234.011.335.025l-.014-.117.014-.118c-.101.014-.212.025-.335.025h-.283v-.692c.278.003.463.016.629.038l-.014-.117.014-.117h-1.038v1.855" transform="matrix(1.25 0 0 -1.25 124.15979 86.560776)"/><path d="m0 0h.27c.386-.422.792-.836 1.176-1.275v1.275l.109-.008.109.008v-1.869l-.231.003c-.316.351-.61.686-.918 1.011l-.297.31v-1.318l-.109.008-.109-.008" transform="matrix(1.25 0 0 -1.25 124.85979 86.560776)"/><path d="m0 0-.204.014-.204-.014v1.675c-.194 0-.365-.019-.507-.038l.013.117-.013.115h1.403l-.014-.115.014-.117c-.161.019-.322.038-.488.038" transform="matrix(1.25 0 0 -1.25 128.70729 88.895776)"/><path d="m0 0c.286-.027.428.109.428.389l-.014.137c-.044.226-.248.204-.414.204zm-.409.877h.581c.128 0 .327.005.441-.055.155-.081.237-.204.237-.389 0-.267-.172-.436-.425-.49.15-.262.319-.512.482-.765l.106-.169-.248.013-.245-.013-.324.572c-.041.073-.117.198-.177.302h-.019v-.874l-.204.013-.205-.013" transform="matrix(1.25 0 0 -1.25 130.42729 87.657026)"/><path d="m0 0-.014-.117.014-.117c-.166.021-.352.043-.629.038v-.586h.283c.123 0 .234.011.335.025l-.014-.117.014-.118c-.101.014-.212.025-.335.025h-.283v-.692c.277.003.463.016.629.038l-.014-.117.014-.117h-1.038v1.855" transform="matrix(1.25 0 0 -1.25 133.57609 86.560776)"/><path d="m0 0c-.055.144-.158.237-.313.237-.216 0-.3-.112-.3-.267 0-.368.828-.3.828-.923 0-.349-.299-.599-.722-.599-.149 0-.31.035-.438.117.033.114.063.228.079.345h.052c.04-.187.188-.299.375-.299.169 0 .319.095.319.283 0 .436-.811.278-.811.934 0 .314.215.572.629.572.196 0 .37-.073.43-.13-.033-.087-.06-.178-.087-.27" transform="matrix(1.25 0 0 -1.25 135.31359 86.999526)"/><path d="m0 0c-.055.144-.158.237-.313.237-.216 0-.3-.112-.3-.267 0-.368.828-.3.828-.923 0-.349-.299-.599-.722-.599-.149 0-.31.035-.438.117.033.114.063.228.079.345h.051c.041-.187.189-.299.376-.299.169 0 .319.095.319.283 0 .436-.812.278-.812.934 0 .314.216.572.63.572.196 0 .37-.073.43-.13-.033-.087-.06-.178-.087-.27" transform="matrix(1.25 0 0 -1.25 137.28729 86.999526)"/><path d="m0 0-.242.635-.256-.635zm-.572-.166c-.071-.207-.139-.376-.191-.564l-.128.008-.131-.008.78 1.888.103-.009.103.009.761-1.893-.235.013-.234-.013c-.063.201-.12.386-.193.569" transform="matrix(1.25 0 0 -1.25 139.25859 87.977026)"/><path d="m0 0h.27c.387-.422.792-.836 1.176-1.275v1.275l.109-.008.109.008v-1.869l-.231.003c-.316.351-.61.686-.918 1.011l-.297.31v-1.318l-.109.008-.109-.008" transform="matrix(1.25 0 0 -1.25 140.76729 86.560776)"/><path d="m0 0c-.245-.068-.488-.122-.727-.122-.575 0-1.087.288-1.087.928 0 .678.496 1.024 1.125 1.024.234 0 .452-.049.656-.166-.038-.087-.065-.182-.076-.275h-.038c-.125.183-.322.278-.537.278-.455 0-.678-.411-.678-.869 0-.474.24-.757.654-.757.136 0 .234.038.299.076v.638l.205-.014.204.014" transform="matrix(1.25 0 0 -1.25 145.81349 88.787026)"/><path d="m0 0c.237 0 .439.019.624.038l-.014-.117.014-.117h-1.033v1.855l.205-.014.204.014" transform="matrix(1.25 0 0 -1.25 147.10609 88.634526)"/><path d="m0 0-.013-.117.013-.117c-.166.021-.351.043-.629.038v-.586h.283c.123 0 .234.011.335.025l-.014-.117.014-.118c-.101.014-.212.025-.335.025h-.283v-.692c.278.003.463.016.629.038l-.013-.117.013-.117h-1.038v1.855" transform="matrix(1.25 0 0 -1.25 149.85609 86.560776)"/><path d="m0 0c0 1.482-1.243 2.514-2.488 2.514-.478 0-4.503 0-4.968 0-.511 0-.728-.398-.786-.486-.06-.089-2.948-4.615-3.257-5.064-.457-.664-1.183-.908-1.719-.908-.937 0-1.475.566-1.735 1.002-.263.443-2.697 4.442-2.86 4.696-.147.23-.413.768-.8.753-.369-.014-.671-.525-.815-.752-.066-.104-2.352-3.638-2.352-3.638s.003.006-.635-.98c-.579-.896-1.593-.822-1.593-.822h-6.317l-.74-1.178h7.057s1.514-.069 2.417 1.193c.979 1.369.89 1.336.968 1.45l1.838 2.846s.038.103.147.103c.099 0 .108-.038.15-.111.112-.195.305-.505.309-.513.179-.29 1.861-3.041 2.305-3.771.463-.761 1.318-1.444 2.656-1.443 1.228.002 2.237.746 2.713 1.482.401.621 2.676 4.131 2.918 4.511.207.323.348.442.78.442h4.322c1.057 0 1.314-.972 1.314-1.327 0-.665-.526-1.31-1.314-1.31h-5.188l-.753-1.191h5.937c1.237 0 2.489 1.005 2.489 2.502" transform="matrix(1.25 0 0 -1.25 180.46229 88.827026)"/><path d="m0 0c-.951 0-3.99-.013-5.19-.005-.866.006-1.883-.592-2.263-1.182-.458-.713-2.963-4.514-3.117-4.821l-.163-.097-.119.077c-.175.291-2.526 4.163-2.914 4.793-.017.027-.788 1.237-2.361 1.237-.002 0-1.575.039-2.456-1.335l-2.935-4.549c-.203-.314-.547-.314-.547-.314h-4.282l-.751-1.196 5.575.005s.391-.037.644.355c.265.41 3.231 4.994 3.231 4.994s.441.859 1.53.859c.755 0 1.099-.31 1.446-.807.5-.805 2.533-4.154 3.18-5.213.219-.358.511-.451.759-.451.457 0 .64.239.686.31.072.113 3.547 5.483 3.547 5.483s.439.67 1.312.67h5.185c1.763 0 3.689-1.407 3.689-3.7 0-2.249-1.871-3.685-3.69-3.685h-6.684l-.745-1.179s7.146.006 7.433 0c2.324-.048 4.876 1.803 4.876 4.864 0 3.205-2.71 4.888-4.876 4.887" transform="matrix(1.25 0 0 -1.25 177.35609 82.718276)"/></g></g></svg>