<svg xmlns="http://www.w3.org/2000/svg" width="719.386" height="240.573"><path fill="#c2c9df" d="M89.776 80.973h33.075v22.444H89.776z"/><path d="M92.138 239.806h28.35l.252-112.512-28.602-.252v112.764zm166.558-91.347h27.169v91.347h29.284V148.46h31.79l6.257-21.417h-94.5v21.417zm145.989 44.653h30.385l5.906-20.114h-36.291v-25.72h51.795v-20.863h-79.56v113.391h81.097v-19.682h-53.332v-27.012zm114.04-66.697h-30.127v113.391h78.584l7.087-20.863h-55.544v-92.528zm77.087 0v113.391h31.308V126.415h-31.308zM0 51.442c14.425-4.761 29.07-8.864 43.786-12.666 3.67-.985 7.367-1.866 11.056-2.78l5.537-1.359 5.553-1.29c3.704-.85 7.401-1.74 11.113-2.56l11.142-2.435c29.744-6.351 59.745-11.52 89.888-15.69l11.31-1.518c3.771-.504 7.54-1.033 11.321-1.449 7.56-.863 15.117-1.756 22.686-2.539l22.726-2.17 22.763-1.767C299.257 1.156 329.701.169 360.153 0c30.454.13 60.897 1.247 91.282 3.292l22.754 1.982c3.79.35 7.587.62 11.37 1.037l11.347 1.286 11.346 1.287 5.672.643c1.893.197 3.78.444 5.661.732l22.6 3.27c7.546.996 15.027 2.417 22.53 3.69l11.245 1.95c3.75.646 7.5 1.281 11.218 2.098 14.892 3.144 29.84 5.979 44.588 9.733l11.082 2.698 5.54 1.349 2.768.68 2.749.762 21.97 6.114c3.652 1.054 7.33 2.001 10.956 3.14l10.867 3.446 21.688 6.978-22.023-5.817-10.99-2.952c-3.664-.977-7.38-1.761-11.066-2.651L653.17 39.5l-2.765-.659-2.784-.578-5.57-1.143-11.139-2.286c-14.796-3.29-29.767-5.71-44.67-8.409-3.719-.712-7.475-1.216-11.217-1.796l-11.232-1.71c-7.49-1.114-14.957-2.374-22.486-3.21l-22.542-2.79c-3.75-.514-7.527-.808-11.29-1.212l-11.298-1.14-11.297-1.138c-3.766-.368-7.547-.59-11.319-.891l-22.644-1.69c-30.223-1.803-60.487-2.854-90.766-2.854-30.277.015-60.551.97-90.782 2.761-30.242 1.674-60.405 4.596-90.502 8.074-3.766.404-7.523.886-11.277 1.383l-11.27 1.461c-3.76.464-7.507 1.016-11.256 1.565l-11.252 1.6c-7.5 1.085-14.977 2.319-22.469 3.47-7.466 1.295-14.95 2.509-22.405 3.877-14.937 2.611-29.803 5.608-44.647 8.736a1011.593 1011.593 0 0 0-22.205 4.986C14.695 47.624 7.325 49.438 0 51.442zM226.013 187.76c5.68 4.435 9.18 11.591 9.18 18.326 0 19.045-19.95 34.487-49.5 34.487-10.69 0-20.65-2.021-29-5.499v-20.558c4.86 2.366 10.84 4.234 17.43 5.26 17.99 2.806 33.587-1.708 35.14-10.04 1.93-10.356-23.82-19.438-23.82-19.438-8.2-3.19-17.82-8.966-23.05-13.871-4.58-4.512-7.2-9.762-7.2-15.366 0-16.928 19.95-34.488 49.5-34.488 9.44 0 18.31 1.399 26 3.86v16.814c-3.5-1.17-7.407-1.836-11.43-2.75-24.07-5.47-40.07 5.068-37.99 13.958 1.513 6.465 10.92 14.102 24.84 18.508 0 0 15.72 5.882 19.9 10.797z" fill="#00589b"/></svg>